<?xml version="1.0" standalone="no"?>
<!DOCTYPE svg PUBLIC "-//W3C//DTD SVG 20010904//EN"
 "http://www.w3.org/TR/2001/REC-SVG-20010904/DTD/svg10.dtd">
<svg version="1.0" xmlns="http://www.w3.org/2000/svg"
 width="87.000000pt" height="87.000000pt" viewBox="0 0 87.000000 87.000000"
 preserveAspectRatio="xMidYMid meet">
<metadata>
Created by potrace 1.14, written by Peter Selinger 2001-2017
</metadata>
<g transform="translate(0.000000,87.000000) scale(0.100000,-0.100000)"
fill="#000000" stroke="none">
<path d="M103 737 l-40 -44 1 -108 2 -109 27 -1 c15 -1 27 3 28 9 0 6 2 53 3
104 2 123 10 130 148 131 131 2 138 -5 138 -140 0 -69 4 -99 13 -102 9 -4 9
-8 1 -14 -8 -5 -12 -57 -12 -155 0 -145 1 -146 24 -151 27 -5 40 3 39 23 -2
32 14 36 137 35 l123 -1 35 33 c30 30 35 41 37 89 2 50 -1 59 -31 92 l-34 36
-145 1 c-80 0 -149 4 -154 8 -4 5 -1 7 7 5 12 -2 15 14 18 97 4 136 10 142
137 143 127 0 134 -7 132 -140 -2 -101 1 -109 39 -104 17 3 19 14 21 112 l1
109 -41 43 -41 42 -110 0 c-105 0 -111 -1 -137 -26 l-28 -26 -26 26 c-25 25
-30 26 -149 26 l-123 0 -40 -43z m622 -347 c19 -16 20 -84 0 -100 -15 -13
-230 -18 -243 -6 -3 4 -7 30 -7 58 -1 39 3 52 16 57 33 12 217 5 234 -9z"/>
<path d="M222 425 c0 -16 2 -22 5 -12 2 9 2 23 0 30 -3 6 -5 -1 -5 -18z"/>
<path d="M100 417 c0 -17 1 -17 17 -1 16 15 17 15 24 -2 7 -17 8 -17 8 2 1 17
-4 22 -24 20 -17 -1 -25 -7 -25 -19z"/>
<path d="M332 420 c0 -14 2 -19 5 -12 2 6 2 18 0 25 -3 6 -5 1 -5 -13z"/>
<path d="M161 414 c0 -11 3 -14 6 -6 3 7 2 16 -1 19 -3 4 -6 -2 -5 -13z"/>
<path d="M251 414 c0 -11 3 -14 6 -6 3 7 2 16 -1 19 -3 4 -6 -2 -5 -13z"/>
<path d="M270 416 c0 -6 11 -11 25 -11 14 0 25 3 25 6 0 4 -11 9 -25 11 -15 3
-25 1 -25 -6z"/>
<path d="M350 415 c0 -8 8 -11 20 -8 11 3 20 7 20 8 0 1 -9 5 -20 8 -12 3 -20
0 -20 -8z"/>
<path d="M186 398 c3 -5 10 -6 15 -3 13 9 11 12 -6 12 -8 0 -12 -4 -9 -9z"/>
<path d="M141 353 c-1 -16 5 -23 17 -23 10 0 13 3 6 8 -6 4 -14 14 -17 22 -4
10 -6 8 -6 -7z"/>
<path d="M172 348 c7 -15 15 -23 17 -17 2 6 -4 18 -13 27 -15 15 -15 15 -4
-10z"/>
<path d="M290 359 c0 -5 -4 -8 -9 -4 -5 3 -13 0 -17 -6 -4 -8 -3 -9 5 -5 7 4
15 -2 20 -16 9 -21 10 -21 10 10 1 17 -1 32 -4 32 -3 0 -5 -5 -5 -11z"/>
<path d="M210 336 c0 -8 4 -17 9 -20 5 -4 7 3 4 14 -6 23 -13 26 -13 6z"/>
<path d="M236 335 c4 -8 8 -15 10 -15 2 0 4 7 4 15 0 8 -4 15 -10 15 -5 0 -7
-7 -4 -15z"/>
<path d="M323 343 c9 -2 15 -9 11 -14 -3 -5 -10 -6 -16 -3 -7 4 -8 2 -4 -5 6
-9 11 -9 22 0 17 14 9 29 -14 28 -15 -1 -15 -2 1 -6z"/>
</g>
</svg>
